<mxfile host="app.diagrams.net" modified="2024-01-24T19:32:14.990Z" agent="Mozilla/5.0 (Macintosh; Intel Mac OS X 10_15_7) AppleWebKit/537.36 (KHTML, like Gecko) Chrome/120.0.0.0 Safari/537.36" version="23.0.1" etag="KhwoXf5TbfsZfpxg6ErP" type="github">
  <diagram name="PÃ¡gina-1" id="aQVWsT3AMCanEDwcguYn">
    <mxGraphModel>
      <root>
        <mxCell id="0" />
        <mxCell id="1" parent="0" />
      </root>
    </mxGraphModel>
  </diagram>
</mxfile>
